<svg width="63" height="16" viewBox="0 0 63 16" fill="none" xmlns="http://www.w3.org/2000/svg">
<path d="M61.15 3.87722C57.9622 5.47046 49.6024 3.51343 46.1501 5.37726C42.6867 7.24706 42.5263 11.9868 42.1501 14.8773C41.6501 14.8773 41.1501 14.8773 40.6501 14.8773C40.4093 10.3033 39.6542 7.33123 37.1501 5.37726C34.4532 3.2729 29.815 2.34934 24.1501 1.87726C15.6501 1.37726 11.1501 4.37727 11.1501 4.37727C20.9036 -4.56351 48.9611 5.13814 61.15 3.87722Z" fill="url(#paint0_linear_36_15)"/>
<path d="M62.6501 3.64751C59.3985 5.45335 53.9801 6.87463 45.8201 4.97774C37.6601 3.08085 36.6401 1.6441 26.9501 1.0107C18.2801 0.443983 11.1501 4.37726 11.1501 4.37726C21.0987 -5.75657 50.2174 5.07669 62.6501 3.64751Z" fill="url(#paint1_linear_36_15)"/>
<path d="M0 14.8905V2.39047H6.16667V3.80714H1.58333V6.4738H5.75V7.89047H1.58333V14.8905H0Z" fill="url(#paint2_linear_36_15)"/>
<path d="M7.92318 14.8905V2.39048H9.42318V14.8905H7.92318Z" fill="url(#paint3_linear_36_15)"/>
<path d="M15.8889 15.0571C15.0833 15.0571 14.3472 14.8627 13.6806 14.4738C13.0139 14.0849 12.4815 13.5618 12.0833 12.9044C11.6944 12.247 11.5 11.5201 11.5 10.7238C11.5 9.91825 11.6944 9.1914 12.0833 8.54325C12.4815 7.88584 13.0139 7.36269 13.6806 6.9738C14.3472 6.58492 15.0833 6.39047 15.8889 6.39047C16.7037 6.39047 17.4398 6.58492 18.0972 6.9738C18.7639 7.36269 19.2917 7.88584 19.6806 8.54325C20.0787 9.1914 20.2778 9.91825 20.2778 10.7238C20.2778 11.5201 20.0787 12.247 19.6806 12.9044C19.2917 13.5618 18.7639 14.0849 18.0972 14.4738C17.4398 14.8627 16.7037 15.0571 15.8889 15.0571ZM15.8889 13.6405C16.4259 13.6405 16.912 13.5108 17.3472 13.2516C17.7824 12.9831 18.1296 12.6312 18.3889 12.196C18.6481 11.7516 18.7778 11.2608 18.7778 10.7238C18.7778 10.1868 18.6481 9.70066 18.3889 9.26547C18.1296 8.82103 17.7824 8.46917 17.3472 8.20992C16.912 7.9414 16.4259 7.80714 15.8889 7.80714C15.3519 7.80714 14.8657 7.9414 14.4306 8.20992C13.9954 8.46917 13.6481 8.82103 13.3889 9.26547C13.1296 9.70066 13 10.1868 13 10.7238C13 11.2608 13.1296 11.7516 13.3889 12.196C13.6481 12.6312 13.9954 12.9831 14.4306 13.2516C14.8657 13.5108 15.3519 13.6405 15.8889 13.6405Z" fill="url(#paint4_linear_36_15)"/>
<path d="M26.1623 15.0571C25.3568 15.0571 24.6207 14.8627 23.954 14.4738C23.2873 14.0849 22.7549 13.5618 22.3568 12.9044C21.9679 12.247 21.7734 11.5201 21.7734 10.7238C21.7734 9.91825 21.9679 9.1914 22.3568 8.54325C22.7549 7.88584 23.2873 7.36269 23.954 6.9738C24.6207 6.58492 25.3568 6.39047 26.1623 6.39047C26.9771 6.39047 27.7133 6.58492 28.3707 6.9738C29.0373 7.36269 29.5651 7.88584 29.954 8.54325C30.3521 9.1914 30.5512 9.91825 30.5512 10.7238C30.5512 11.5201 30.3521 12.247 29.954 12.9044C29.5651 13.5618 29.0373 14.0849 28.3707 14.4738C27.7133 14.8627 26.9771 15.0571 26.1623 15.0571ZM26.1623 13.6405C26.6994 13.6405 27.1855 13.5108 27.6207 13.2516C28.0558 12.9831 28.4031 12.6312 28.6623 12.196C28.9216 11.7516 29.0512 11.2608 29.0512 10.7238C29.0512 10.1868 28.9216 9.70066 28.6623 9.26547C28.4031 8.82103 28.0558 8.46917 27.6207 8.20992C27.1855 7.9414 26.6994 7.80714 26.1623 7.80714C25.6253 7.80714 25.1392 7.9414 24.704 8.20992C24.2688 8.46917 23.9216 8.82103 23.6623 9.26547C23.4031 9.70066 23.2734 10.1868 23.2734 10.7238C23.2734 11.2608 23.4031 11.7516 23.6623 12.196C23.9216 12.6312 24.2688 12.9831 24.704 13.2516C25.1392 13.5108 25.6253 13.6405 26.1623 13.6405Z" fill="url(#paint5_linear_36_15)"/>
<path d="M32.6302 14.8905V6.55714H34.0191V8.08492C34.3154 7.59417 34.7089 7.20529 35.1997 6.91825C35.6904 6.62195 36.6487 6.55714 37.3247 6.55714V7.9738C37.1487 7.91825 36.945 7.89047 36.7135 7.89047C35.9358 7.89047 35.3108 8.14047 34.8385 8.64047C34.3663 9.13121 34.1302 9.83492 34.1302 10.7516V14.8905H32.6302Z" fill="url(#paint6_linear_36_15)"/>
<path d="M50.6392 15.2238C49.7689 15.2238 48.9865 15.0294 48.292 14.6405C47.6068 14.2516 47.0652 13.7238 46.667 13.0571C46.2781 12.3812 46.0837 11.6312 46.0837 10.8071C46.0837 10.0201 46.2735 9.30714 46.6531 8.66825C47.0328 8.0201 47.542 7.50621 48.1809 7.12658C48.829 6.74695 49.542 6.55714 50.3198 6.55714C51.0883 6.55714 51.792 6.74232 52.4309 7.11269C53.0698 7.4738 53.579 7.96454 53.9587 8.58492C54.3383 9.20529 54.5281 9.90899 54.5281 10.696V11.3071H49.0837C48.8429 11.3071 48.5976 11.2979 48.3476 11.2794C48.0976 11.2608 47.8522 11.3442 47.6115 11.3071C47.7133 12.0479 48.0466 12.5571 48.6115 13.0571C49.1855 13.5571 49.8661 13.8071 50.6531 13.8071C51.1809 13.8071 51.6716 13.6868 52.1253 13.446C52.5791 13.2053 52.9448 12.8858 53.2226 12.4877L53.6392 14.196C53.2411 14.5201 52.7828 14.7747 52.2642 14.9599C51.755 15.1358 51.2133 15.2238 50.6392 15.2238ZM47.6115 10.0571C48.1809 10.0571 48.5744 10.0571 49.0837 10.0571H51.8476C52.0513 10.0571 52.2503 10.0664 52.4448 10.0849C52.6485 10.0942 52.8522 10.1081 53.0559 10.1266C52.9263 9.47844 52.6022 8.94603 52.0837 8.52936C51.5652 8.10344 50.9772 7.89047 50.3198 7.89047C49.6439 7.89047 49.0513 8.11732 48.542 8.57103C48.0328 9.01547 47.7503 9.42751 47.6115 10.0571Z" fill="#9C8146"/>
<path d="M54.9834 15.0571L57.914 10.6405L55.3029 6.7238H57.0529L57.8584 8.00158C58.0343 8.2701 58.2056 8.55251 58.3723 8.8488C58.5482 9.13584 58.701 9.43214 58.8306 9.73769C58.9695 9.43214 59.1223 9.13584 59.289 8.8488C59.4649 8.56177 59.6408 8.27936 59.8168 8.00158L60.6084 6.7238H62.3306L59.7195 10.6405L62.6501 15.0571H60.8723L59.7334 13.2377C59.5668 12.9692 59.4001 12.7007 59.2334 12.4321C59.0668 12.1544 58.9186 11.8673 58.789 11.571C58.6593 11.8673 58.5112 12.1544 58.3445 12.4321C58.1779 12.7007 58.0112 12.9692 57.8445 13.2377L56.7056 15.0571H54.9834Z" fill="#9C8146"/>
<defs>
<linearGradient id="paint0_linear_36_15" x1="12.6501" y1="5.37726" x2="48.4685" y2="5.5536" gradientUnits="userSpaceOnUse">
<stop stop-color="#FFE6AF"/>
<stop offset="0.805" stop-color="#B89852"/>
</linearGradient>
<linearGradient id="paint1_linear_36_15" x1="11.1501" y1="2.93863" x2="62.6501" y2="2.93863" gradientUnits="userSpaceOnUse">
<stop stop-color="#B69650"/>
<stop offset="0.705" stop-color="#504223"/>
</linearGradient>
<linearGradient id="paint2_linear_36_15" x1="0" y1="8.80714" x2="62.6501" y2="8.80714" gradientUnits="userSpaceOnUse">
<stop stop-color="#CAAB69"/>
<stop offset="1" stop-color="#504223"/>
</linearGradient>
<linearGradient id="paint3_linear_36_15" x1="0" y1="8.80714" x2="62.6501" y2="8.80714" gradientUnits="userSpaceOnUse">
<stop stop-color="#CAAB69"/>
<stop offset="1" stop-color="#504223"/>
</linearGradient>
<linearGradient id="paint4_linear_36_15" x1="0" y1="8.80714" x2="62.6501" y2="8.80714" gradientUnits="userSpaceOnUse">
<stop stop-color="#CAAB69"/>
<stop offset="1" stop-color="#504223"/>
</linearGradient>
<linearGradient id="paint5_linear_36_15" x1="0" y1="8.80714" x2="62.6501" y2="8.80714" gradientUnits="userSpaceOnUse">
<stop stop-color="#CAAB69"/>
<stop offset="1" stop-color="#504223"/>
</linearGradient>
<linearGradient id="paint6_linear_36_15" x1="0" y1="8.80714" x2="62.6501" y2="8.80714" gradientUnits="userSpaceOnUse">
<stop stop-color="#CAAB69"/>
<stop offset="1" stop-color="#504223"/>
</linearGradient>
</defs>
</svg>
